<?xml version="1.0" encoding="utf-8"?>
<!-- Generator: Adobe Illustrator 26.2.0, SVG Export Plug-In . SVG Version: 6.00 Build 0)  -->
<svg version="1.1" id="Layer_1" xmlns="http://www.w3.org/2000/svg" xmlns:xlink="http://www.w3.org/1999/xlink" x="0px" y="0px"
	 viewBox="0 0 461 86.5" style="enable-background:new 0 0 461 86.5;" xml:space="preserve">
<path d="M165.7,11.8c0,0-4.4,1.8-9.6,7.5s-8.2,12.1-6,13.8c0.8,0.6,2.8,0.8,6.4-2.4c3.3-2.9,5.8-6.5,7.6-10.5
	C166.4,14.6,165.7,11.9,165.7,11.8 M193.9,22.1c-5.8-3-9.9-6.6-14.3-8.8c-4.2-2.1-6.9-3-10.2-2.6c-0.5,0.1-0.9,0.2-1.4,0.3
	c0,0,1.7,5.9-5.1,15.9s-13.3,10-15.1,7.2s0.6-8.9,4.6-14.1c4.2-5.6,11.7-10.1,11.7-10.1s-2.4-1.5-8.2,1.9
	c-5.7,3.2-15.5,11-24.7,23.9s-11,20.1-12.3,25.7s-0.1,11.7,6.1,11.7c6.2,0,13.5-9.5,15.5-12.8c3.8-6.2,6.3-15.6,1.1-14.3
	c-2.6,0.6-4.6,3.5-5.9,6.2c-0.8,1.8-1.5,3.6-1.9,5.5c-1.8,0.7-3.5,1.7-5.1,2.9c-1.7,1.2-3.3,2.6-4.8,4.2c0,0,0-4.5,3.6-11.8
	s10.1-10.6,13.9-10.9c3.3-0.3,7.7,2.6,4,13.1s-14.6,23.3-26,23.4c-10.6,0.1-17.5-13.4-2.8-36.9c16.3-26.1,35.4-34,41.6-34.9
	s8.2,1.9,8.2,1.9c3.7-1.5,7.8-2.2,11.8-1.9c7.6,0.5,13.4,5.9,21.2,9.6C197.5,18.2,195.5,20.2,193.9,22.1 M228,13.4
	c-5.3,3.4-12.5,6.4-19.5,5.8c-1.7,1.8-3.7,3.9-5.5,6.2c12.1,2.4,22.7-5.1,28.3-11.5c2-2.3,3.8-4.8,5.2-7.5
	C234,9,231.1,11.4,228,13.4 M211.8,47.5c0.1-0.1,0.1-0.3,0.2-0.5c-0.1-0.6-0.5-1-1.1-1c-1.2-0.1-2.7,0.1-6.9,4.7
	c-3.4,3.8-6.4,8-8.8,12.5c-2.4,4.3-3.3,7.6-1.9,8.4c0.5,0.2,1,0.3,1.4,0.1c0.9-0.2,1.9-1.1,3.5-2.9c0.8-0.8,1.6-2.1,2.6-3.4
	C203.6,61.6,210.4,49.8,211.8,47.5 M168.9,52.5c0.7-1.8,1.6-5.3-0.3-6.7s-6.9,2-7,5.5s3.5,5.3,4.4,5.5c0.5,0.1,0.6,0.1,0.9-0.3
	C167.7,55.2,168.4,53.9,168.9,52.5 M165.2,59.1c-1.3-0.6-2.4-1.3-3.5-2.2c-1-0.9-1.9-1.9-2.6-3.1c-0.1-0.1-0.1,0-0.2,0.1
	c-1.1,1.4-2.1,2.8-3,4.3c-2.7,4-6.7,12-3.1,13.4c2.4,0.9,6.3-3.2,8.4-6c1.4-1.9,2.8-3.9,3.9-6C165.4,59.2,165.3,59.2,165.2,59.1
	 M207.1,68.5c-1,1.6-2.1,4.7,1.2,2.8c4-2.4,9.8-11.1,9.8-11.1h2.6c-2.4,3.6-5,7.1-7.9,10.4c-4.1,4.6-9.1,8.7-12.6,8.2
	c-4.1-0.5-2.8-5.9-2.8-5.9s-5.9,6.2-10,5.8c-5.5-0.6-3.8-7.4-3.8-7.4s-6.2,7.6-10.5,7.4c-6.6-0.4-5-8.4-3.1-14.1
	c1-3,1.9-5.4,1.9-5.4l-2.1,0.4c-0.8,0.1-2.1,0.2-2.1,0.2s-2.8,4.8-5,7.8s-11.6,13-17.1,11c-5.1-1.9-3.4-9.7-0.4-15.9
	c4.4-9.1,16.6-22.1,23.6-20.4c7.3,1.8,0.1,15.1,0.1,15.1s0,0.1,0.1,0.1l0,0c0.5,0.1,0.9,0.1,1.4-0.1c0.9-0.2,1.8-0.5,2.7-0.8
	c0,0,7.4-15.5,15.5-25.5s24.3-27.4,30.6-23.2c1.5,1,0.8,4.6-1.2,8.9c-0.9,0.3-1.9,0.5-2.8,0.8c1.2-1.9,2-4,2.6-6.2
	c1-5.2-11.2,5.8-19.9,17.5C192.7,36,188,43.5,184,51.3c1.6-1,3.1-2,4.5-3.2c3.9-3.2,7.5-6.6,11-10.3c3.3-3.4,6.5-7,9.4-10.8
	c1-0.1,1.9-0.1,2.8-0.3c-3.2,4.3-6.6,8.3-10.3,12.2c-3.5,3.5-7.2,7.3-10.5,10c-2.9,2.5-5.9,4.7-9.1,6.8c0,0-7.6,15.3-3.5,16.3
	c2.4,0.6,7.2-6.8,7.2-6.8s6.2-9.6,10.1-13.9c5.1-5.8,9.6-9.2,14-9.3c2.6-0.1,4.1,2.7,4.1,2.7l1.2-1.9h7.5
	C222.2,43,208.2,66.6,207.1,68.5 M228,13.4c-5.3,3.4-12.5,6.4-19.5,5.8c-1.7,1.8-3.7,3.9-5.5,6.2c12.1,2.4,22.7-5.1,28.3-11.5
	c2-2.3,3.8-4.8,5.2-7.5C234,9,231.1,11.4,228,13.4 M123.1,24.9h-7.1l-4,6.5h7.1L123.1,24.9z M89.6,47.4c3-4.2,11.4-18.6,11.4-18.6
	c-0.1-0.6-0.5-1-1.1-1c-1.2-0.1-3,0.3-6.9,5.1s-6.8,8.6-8.9,12.5c-2.4,4.3-3.4,7.3-2,8.2c0.5,0.2,1,0.3,1.4,0.1
	c0.9-0.2,2-1.1,3.6-2.9C87.7,49.9,88.6,48.7,89.6,47.4 M51.5,27.8c-1.9-1.5-6.9,2-7,5.5s4.5,4.6,5.1,4.7c0.3,0.1,0.5-0.1,0.7-0.3
	c0.6-1,1-2.1,1.5-3.2C52.5,32.7,53.3,29.2,51.5,27.8 M48.5,40.3c-1.4-0.4-2.7-1-3.9-1.7c-1.2-0.8-2.1-1.8-2.8-3
	c-0.1-0.1-0.1,0-0.2,0.1s-0.5,0.6-3.1,4.5S31.9,52,35.6,53.4c2.3,0.9,6.4-3.2,8.5-6c1.6-2.2,3.1-4.4,4.5-6.7
	C48.8,40.5,48.6,40.4,48.5,40.3 M106.5,42.8h2.6c0,0-13,18.8-20.4,18c-4.1-0.5-2.9-5.5-2.9-5.5s-5.8,6.7-11.1,5.3
	C70,59.2,73,51.3,73,51.3c-0.6,0.2-10.9,11.9-18.3,9.1c-7.6-3-3.7-12.8-2.2-15.7c1.2-2.5,2.6-4.9,2.6-4.9s-1.2,0.3-1.9,0.5l-1.8,0.3
	c0,0-3.6,5.9-5.8,8.8s-11.6,13-17.2,11s-4.1-9.8-1-15.9c5.1-10,17.1-22.2,24.2-20.4s1.2,13.6,1.2,13.6s1.5,0.2,4.9-2.2
	c5-3.4,11.6-12.6,18.8-11.5c3.3,0.5,6.5,4,2.2,10.5c-1.4,2.1-3.7,4-5.4,2.1c-1.1-1.2-0.1-3.2,1-4.7c0.9-1.2,2.4-1.9,3.9-1.7
	c0,0,1.2-2.7-1.8-2.6C74,27.6,67.9,33.2,64.4,39c-3.3,5.3-8.1,14.3-3.3,16.2C65.6,57,74,47,78,41.7S90.8,24.5,98.3,24
	c1.6,0,3.1,0.8,4,2.1l0.8-1.4h7.5c0,0-14.1,23.5-15.2,25.4c-0.8,1.4-2,4.5,1.2,2.8S106.5,42.7,106.5,42.8 M102.4,80.4
	c-5.5-3.8-12.1-5.7-18.8-5.5c-3.7,0.1-7.1,2-9.1,5c-2.8-5-8.5-8-17.2-8c-14.1,0.1-28.1,6.7-39.2,6.7C7.5,78.6-0.3,71.9,0,60
	c0.5-20.8,18-39.5,31.2-47.9c7.6-4.8,13.8-6.3,18-5.8c3,0.3,6.7,3.8,4.4,8.9c-3.4,7.6-8,6.9-7.8,3.3c0.1-1.9,1.2-3.6,2.8-4.6
	c0.8-0.4,1.8-0.6,2.7-0.7c0.7-0.6,1.2-4.6-4.2-3.3s-11.9,6.7-18.2,13.5S13,43.2,10.7,56.8c-1.1,6.3-0.4,17.8,14.5,17.7
	c12.7-0.1,31.4-8.4,48.6-8.3c6,0,11.9,1.6,17,4.6C95.2,73.6,100.6,77.7,102.4,80.4"/>
<g>
	<path d="M243.1,78.5h-4v-28h4V78.5z M259.5,66.1h-16.8v-3.5h16.8V66.1z M259.2,50.5h4v28h-4V50.5z"/>
	<path d="M279.9,78.8c-2.1,0-4-0.5-5.7-1.4c-1.7-0.9-3-2.2-3.9-3.9s-1.4-3.5-1.4-5.6c0-2.1,0.5-4,1.4-5.6c1-1.6,2.3-2.9,3.9-3.8
		c1.7-0.9,3.5-1.4,5.7-1.4c2.1,0,4,0.5,5.7,1.4c1.7,0.9,3,2.2,3.9,3.8c0.9,1.6,1.4,3.5,1.4,5.6s-0.5,4-1.4,5.6
		c-0.9,1.6-2.3,2.9-3.9,3.8C283.8,78.3,282,78.8,279.9,78.8z M279.9,75.4c1.4,0,2.6-0.3,3.7-0.9c1.1-0.6,1.9-1.5,2.5-2.6
		c0.6-1.1,0.9-2.4,0.9-3.9c0-1.5-0.3-2.8-0.9-3.9c-0.6-1.1-1.5-2-2.5-2.6c-1.1-0.6-2.3-0.9-3.7-0.9c-1.4,0-2.6,0.3-3.6,0.9
		c-1.1,0.6-1.9,1.5-2.6,2.6c-0.6,1.1-1,2.4-1,3.9c0,1.5,0.3,2.8,1,3.9c0.6,1.1,1.5,2,2.6,2.6C277.3,75.1,278.5,75.4,279.9,75.4z"/>
	<path d="M307.3,57.1c1.7,0,3.3,0.3,4.6,1c1.3,0.7,2.4,1.7,3.1,3c0.7,1.4,1.1,3.1,1.1,5.2v12.2h-3.8V66.8c0-2.1-0.5-3.6-1.5-4.6
		s-2.4-1.6-4.2-1.6c-1.4,0-2.5,0.3-3.6,0.8s-1.8,1.3-2.3,2.4s-0.8,2.3-0.8,3.9v10.9H296V57.3h3.7v5.7l-0.6-1.5
		c0.7-1.4,1.8-2.5,3.2-3.2C303.7,57.5,305.3,57.1,307.3,57.1z"/>
	<path d="M331.8,77.6c-2.1,0-3.9-0.4-5.5-1.3c-1.6-0.9-2.9-2.1-3.8-3.6c-0.9-1.5-1.4-3.3-1.4-5.4c0-2.1,0.5-3.8,1.4-5.4
		c0.9-1.5,2.2-2.7,3.8-3.6c1.6-0.9,3.4-1.3,5.5-1.3c1.8,0,3.5,0.4,5,1.1c1.5,0.7,2.7,1.9,3.6,3.4c0.9,1.5,1.3,3.4,1.3,5.8
		c0,2.3-0.4,4.2-1.3,5.7c-0.9,1.5-2.1,2.7-3.6,3.4C335.2,77.3,333.6,77.6,331.8,77.6z M332.2,86.5c-1.9,0-3.8-0.3-5.7-0.8
		c-1.8-0.5-3.3-1.3-4.5-2.3l1.8-3c1,0.9,2.2,1.5,3.6,2c1.4,0.5,2.9,0.7,4.5,0.7c2.5,0,4.3-0.6,5.5-1.8c1.2-1.2,1.8-3,1.8-5.4v-4.5
		l0.4-4.2l-0.2-4.2v-5.8h3.6v18.3c0,3.7-0.9,6.5-2.8,8.2C338.6,85.6,335.8,86.5,332.2,86.5z M332.2,74.3c1.4,0,2.7-0.3,3.8-0.9
		c1.1-0.6,2-1.4,2.6-2.4s0.9-2.2,0.9-3.6s-0.3-2.6-0.9-3.6s-1.5-1.8-2.6-2.4c-1.1-0.6-2.3-0.9-3.8-0.9s-2.7,0.3-3.8,0.9
		c-1.1,0.6-2,1.4-2.6,2.4s-0.9,2.2-0.9,3.6s0.3,2.6,0.9,3.6s1.5,1.9,2.6,2.4C329.5,74,330.8,74.3,332.2,74.3z"/>
	<path d="M361.5,78.5v-28h4v28H361.5z M365,71.8l-0.2-4.9l15.9-16.3h4.6l-12.3,12.9l-2.2,2.5L365,71.8z M381.3,78.5l-11.5-13.3
		l2.7-3L386,78.5H381.3z"/>
	<path d="M397.6,78.8c-2.1,0-4-0.5-5.7-1.4c-1.7-0.9-3-2.2-3.9-3.9s-1.4-3.5-1.4-5.6c0-2.1,0.5-4,1.4-5.6c1-1.6,2.3-2.9,3.9-3.8
		c1.7-0.9,3.5-1.4,5.7-1.4c2.1,0,4,0.5,5.7,1.4c1.7,0.9,3,2.2,3.9,3.8c0.9,1.6,1.4,3.5,1.4,5.6s-0.5,4-1.4,5.6
		c-0.9,1.6-2.3,2.9-3.9,3.8C401.6,78.3,399.7,78.8,397.6,78.8z M397.6,75.4c1.4,0,2.6-0.3,3.7-0.9c1.1-0.6,1.9-1.5,2.5-2.6
		c0.6-1.1,0.9-2.4,0.9-3.9c0-1.5-0.3-2.8-0.9-3.9c-0.6-1.1-1.5-2-2.5-2.6c-1.1-0.6-2.3-0.9-3.7-0.9c-1.4,0-2.6,0.3-3.6,0.9
		c-1.1,0.6-1.9,1.5-2.6,2.6c-0.6,1.1-1,2.4-1,3.9c0,1.5,0.3,2.8,1,3.9c0.6,1.1,1.5,2,2.6,2.6C395,75.1,396.2,75.4,397.6,75.4z"/>
	<path d="M425,57.1c1.7,0,3.3,0.3,4.6,1c1.3,0.7,2.4,1.7,3.1,3c0.7,1.4,1.1,3.1,1.1,5.2v12.2H430V66.8c0-2.1-0.5-3.6-1.5-4.6
		s-2.4-1.6-4.2-1.6c-1.4,0-2.5,0.3-3.6,0.8s-1.8,1.3-2.3,2.4s-0.8,2.3-0.8,3.9v10.9h-3.8V57.3h3.7v5.7l-0.6-1.5
		c0.7-1.4,1.8-2.5,3.2-3.2C421.4,57.5,423.1,57.1,425,57.1z"/>
	<path d="M449.5,77.6c-2.1,0-3.9-0.4-5.5-1.3c-1.6-0.9-2.9-2.1-3.8-3.6c-0.9-1.5-1.4-3.3-1.4-5.4c0-2.1,0.5-3.8,1.4-5.4
		c0.9-1.5,2.2-2.7,3.8-3.6c1.6-0.9,3.4-1.3,5.5-1.3c1.8,0,3.5,0.4,5,1.1c1.5,0.7,2.7,1.9,3.6,3.4c0.9,1.5,1.3,3.4,1.3,5.8
		c0,2.3-0.4,4.2-1.3,5.7c-0.9,1.5-2.1,2.7-3.6,3.4C453,77.3,451.3,77.6,449.5,77.6z M450,86.5c-1.9,0-3.8-0.3-5.7-0.8
		c-1.8-0.5-3.3-1.3-4.5-2.3l1.8-3c1,0.9,2.2,1.5,3.6,2c1.4,0.5,2.9,0.7,4.5,0.7c2.5,0,4.3-0.6,5.5-1.8c1.2-1.2,1.8-3,1.8-5.4v-4.5
		l0.4-4.2l-0.2-4.2v-5.8h3.6v18.3c0,3.7-0.9,6.5-2.8,8.2C456.3,85.6,453.6,86.5,450,86.5z M449.9,74.3c1.4,0,2.7-0.3,3.8-0.9
		c1.1-0.6,2-1.4,2.6-2.4s0.9-2.2,0.9-3.6s-0.3-2.6-0.9-3.6s-1.5-1.8-2.6-2.4c-1.1-0.6-2.3-0.9-3.8-0.9s-2.7,0.3-3.8,0.9
		c-1.1,0.6-2,1.4-2.6,2.4s-0.9,2.2-0.9,3.6s0.3,2.6,0.9,3.6s1.5,1.9,2.6,2.4C447.3,74,448.5,74.3,449.9,74.3z"/>
</g>
</svg>
